<svg width="20" height="20" viewBox="0 0 20 20" fill="none" xmlns="http://www.w3.org/2000/svg">
<path d="M19.9084 14.9V17.9C19.9084 19 19.0084 19.9 17.9084 19.9C17.8084 19.9 17.8084 19.9 17.7084 19.9C14.6084 19.6 11.7084 18.5 9.10844 16.8C6.70844 15.3 4.60844 13.2 3.10844 10.8C1.40844 8.2 0.308439 5.3 0.00843918 2.2C-0.0915608 1.1 0.708439 0.1 1.80844 0C1.90844 0 1.90844 0 2.00844 0H5.00844C6.00844 0 6.90844 0.7 7.00844 1.7C7.10844 2.7 7.40844 3.6 7.70844 4.5C8.00844 5.3 7.80844 6.1 7.20844 6.6L6.00844 7.9C7.40844 10.4 9.50844 12.5 12.0084 13.9L13.3084 12.6C13.9084 12.1 14.7084 11.9 15.4084 12.2C16.3084 12.5 17.2084 12.8 18.2084 12.9C19.2084 13 19.9084 13.9 19.9084 14.9Z" fill="white"/>
</svg>
