<svg width="50" height="13" viewBox="0 0 50 13" fill="none" xmlns="http://www.w3.org/2000/svg">
<path d="M5.392 12.192C3.28 12.192 1.53067 11.5733 0.144 10.336L1.872 8.272C2.992 9.168 4.20267 9.616 5.504 9.616C6.35733 9.616 6.784 9.34933 6.784 8.816C6.784 8.58133 6.656 8.38933 6.4 8.24C6.144 8.08 5.64267 7.91467 4.896 7.744C4.21333 7.584 3.648 7.42933 3.2 7.28C2.76267 7.12 2.33067 6.912 1.904 6.656C1.488 6.38933 1.17867 6.05333 0.976 5.648C0.773333 5.24267 0.672 4.75733 0.672 4.192C0.672 3.136 1.06133 2.27733 1.84 1.616C2.62933 0.944 3.68533 0.608 5.008 0.608C6.84267 0.608 8.37867 1.104 9.616 2.096L8.064 4.288C7.01867 3.552 5.97333 3.184 4.928 3.184C4.56533 3.184 4.288 3.25333 4.096 3.392C3.904 3.53067 3.808 3.712 3.808 3.936C3.808 4.192 3.936 4.39467 4.192 4.544C4.45867 4.69333 4.976 4.85333 5.744 5.024C7.152 5.33333 8.19733 5.74933 8.88 6.272C9.57333 6.784 9.92 7.54133 9.92 8.544C9.92 9.67467 9.50933 10.5653 8.688 11.216C7.86667 11.8667 6.768 12.192 5.392 12.192ZM11.4295 12L11.4295 0.799999L14.7095 0.799999L17.3815 5.136L20.0535 0.799999L23.3335 0.799999L23.3335 12H20.2455L20.2455 5.568L17.3815 9.952H17.3175L14.4695 5.6V12H11.4295ZM25.3201 12L25.3201 0.799999L28.6001 0.799999L31.2721 5.136L33.9441 0.799999L37.2241 0.799999V12H34.1361V5.568L31.2721 9.952H31.2081L28.3601 5.6L28.3601 12L25.3201 12ZM39.2108 12V0.799999L44.5068 0.799999C46.1388 0.799999 47.3548 1.2 48.1548 2C48.8161 2.66133 49.1468 3.54667 49.1468 4.656C49.1468 6.29867 48.3788 7.44533 46.8428 8.096L49.5148 12H45.9308L43.6748 8.608H42.3148V12H39.2108ZM42.3148 6.176H44.3628C44.8854 6.176 45.2908 6.05867 45.5788 5.824C45.8774 5.57867 46.0268 5.24267 46.0268 4.816C46.0268 4.37867 45.8774 4.048 45.5788 3.824C45.2908 3.6 44.8801 3.488 44.3468 3.488L42.3148 3.488V6.176Z" fill="white"/>
</svg>
