<svg width="86" height="86" viewBox="0 0 86 86" fill="none" xmlns="http://www.w3.org/2000/svg">
<path fill-rule="evenodd" clip-rule="evenodd" d="M43 1C66.2044 1 85 19.7956 85 43C85 66.2044 66.2044 85 43 85C19.7956 85 1 66.2044 1 43C1 19.7956 19.7956 1 43 1Z" stroke="white" stroke-width="2" stroke-miterlimit="10"/>
<path d="M29.2224 5.29286C28.7003 5.29286 28.2362 5.37987 27.8011 5.55391C25.1036 6.71413 23.7694 11.7321 24.2335 18.9835C24.7556 27.163 27.4241 37.2569 31.7169 47.3799C40.2445 67.5097 51.6147 79.518 57.6768 79.518C58.1989 79.518 58.663 79.431 59.0981 79.2569C61.7956 78.1257 63.1299 73.0788 62.6658 65.8274C62.1437 57.6478 59.4752 47.5539 55.1824 37.431C46.6547 17.3011 35.2846 5.29286 29.2224 5.29286ZM65.7984 76.5594C61.9406 79.1989 57.5898 81.1713 52.9199 82.3605C44.7984 78.5318 35.1975 65.8564 28.0042 48.9462C23.5373 38.3882 20.7528 27.8592 20.2017 19.2155C19.9406 15.0387 20.2017 11.529 20.9558 8.74451C25.2196 5.98899 30.0346 4.01661 35.1975 3.03043C43.058 7.49728 52.0788 19.7376 58.8951 35.8067C63.3619 46.3647 66.1464 56.8937 66.6975 65.5373C66.9876 70.0332 66.6685 73.7169 65.7984 76.5594Z" fill="white"/>
<path d="M62.8398 27.192C54.3992 27.192 44.6533 28.6132 34.6464 31.2818C22.7541 34.4724 11.9931 39.0552 4.39363 44.1892C3.6975 44.6533 3.03038 45.1464 2.39225 45.6105C2.33424 44.7983 2.30524 43.9862 2.30524 43.174C2.6243 42.942 2.94336 42.7389 3.26242 42.5069C11.0649 37.2569 22.029 32.587 34.1243 29.3384C44.3052 26.6119 54.2541 25.1616 62.8398 25.1616C71.1934 25.1616 77.5166 26.5539 81.1423 29.1063C82.3315 32.413 83.1146 35.8936 83.4337 39.5483C79.0539 47.6699 63.3619 56.7486 42.942 62.2016C32.761 64.9282 22.8411 66.3784 14.2265 66.3784C12.6312 66.3784 11.0939 66.3204 9.64363 66.2334C9.15054 65.5373 8.68645 64.8121 8.25137 64.087C10.1077 64.261 12.1091 64.3771 14.2555 64.3771C22.6961 64.3771 32.442 62.9558 42.4489 60.2873C54.3411 57.0967 65.1022 52.5138 72.7016 47.3798C79.924 42.5069 83.4917 37.663 82.5345 34.0373C81.3453 29.7445 74.0069 27.192 62.8398 27.192Z" fill="white"/>
<path d="M51.9626 3.55251C40.2444 3.55251 26.6698 12.8053 17.4171 27.105C11.3549 36.4448 7.96125 46.7127 7.81622 55.9655C7.75821 59.3881 8.16429 62.5207 8.97644 65.3053C8.36733 64.4061 7.81622 63.4779 7.29413 62.5207C6.94606 60.4614 6.77203 58.2859 6.80103 55.9655C6.94606 46.5097 10.3977 36.0677 16.5469 26.5539C25.1905 13.2114 37.5469 4.19063 48.83 2.74036C50.2513 2.9434 51.6436 3.23345 53.0068 3.58152C52.6878 3.58152 52.3397 3.55251 51.9626 3.55251ZM23.2182 78.5028C24.2043 78.6478 25.2195 78.7348 26.2637 78.7348C37.982 78.7348 51.5566 69.4821 60.8093 55.1823C66.8715 45.8426 70.2651 35.5746 70.4101 26.3218C70.5262 18.6354 68.3798 12.3992 64.29 8.39643C65.3342 9.03456 66.3494 9.73069 67.3066 10.4558C70.0621 14.5166 71.5124 19.9696 71.3963 26.3509C71.2513 35.8067 67.7996 46.2486 61.6505 55.7625C52.2237 70.3522 38.33 79.779 26.2637 79.779C26.0317 79.779 25.8287 79.779 25.6256 79.779C24.7845 79.3439 23.9723 78.9379 23.2182 78.5028Z" fill="white"/>
<path d="M18.8674 22.4931C13.9365 22.4931 9.84667 23.1313 6.8301 24.3205C7.52623 22.9862 8.28038 21.71 9.09253 20.4628C11.8771 19.7956 15.1547 19.4766 18.8674 19.4766C28.4392 19.4766 40.0124 21.768 51.4986 25.9158C65.2182 30.8757 76.5014 37.605 83.5207 44.4213C83.4627 45.7556 83.3757 47.0898 83.2016 48.3951C82.2155 47.3219 81.0842 46.2197 79.808 45.1174C72.6726 38.8523 62.2597 33.0511 50.4544 28.7873C39.3163 24.7266 28.0911 22.4931 18.8674 22.4931ZM2.74032 37.0249C4.1906 39.4614 6.45303 42.0429 9.4406 44.6824C16.576 50.9476 26.9889 56.7487 38.7942 61.0125C49.9613 65.0442 61.1865 67.2777 70.4102 67.2777C72.2956 67.2777 74.0649 67.1907 75.6892 67.0166C74.8481 68.1478 73.9779 69.221 73.0207 70.2652C72.1795 70.2942 71.2804 70.3232 70.3812 70.3232C60.8094 70.3232 49.2362 68.0318 37.75 63.884C21.5649 58.0249 8.71546 49.7003 2.30524 41.6658C2.36325 40.0995 2.50828 38.5622 2.74032 37.0249Z" fill="white"/>
<path d="M51.4696 3.40746C46.8867 3.40746 39.7514 13.2983 36.2417 29.3094C34.5594 36.9378 34.0953 44.3343 34.9075 50.1354C35.6616 55.5304 37.4599 58.924 39.8674 59.4461C40.0994 59.5041 40.3315 59.5332 40.5635 59.5332C45.1464 59.5332 52.2818 49.6423 55.7914 33.6312C57.4738 26.0028 57.9378 18.6064 57.1257 12.8053C56.3715 7.41022 54.5732 4.01658 52.1657 3.49448C51.9337 3.43647 51.7017 3.40746 51.4696 3.40746ZM47.6989 2.59531C50.8025 2.94337 53.7901 3.66851 56.6326 4.6837C57.7928 6.56906 58.663 9.20857 59.1271 12.5152C59.9682 18.5483 59.5041 26.2058 57.7638 34.0373C56.1395 41.4627 53.529 48.337 50.4544 53.384C47.2058 58.721 43.7831 61.5345 40.5635 61.5345C40.1865 61.5345 39.8094 61.5055 39.4323 61.4185C36.1257 60.6934 33.8052 56.7776 32.9061 50.4254C32.0649 44.3923 32.529 36.7348 34.2693 28.9033C35.8936 21.4779 38.5041 14.6036 41.5787 9.55663C43.5801 6.25 45.6395 3.90056 47.6989 2.59531Z" fill="white"/>
</svg>
